<svg width="49" height="50" fill="none" xmlns="http://www.w3.org/2000/svg"><path fill-rule="evenodd" clip-rule="evenodd" d="M24.497 16.51a8.21 8.21 0 0 1 4.624 1.43 8.456 8.456 0 0 1 3.067 3.81 8.644 8.644 0 0 1 .473 4.904A8.54 8.54 0 0 1 30.383 31a8.275 8.275 0 0 1-4.262 2.324 8.176 8.176 0 0 1-4.81-.484 8.362 8.362 0 0 1-3.736-3.126 8.608 8.608 0 0 1-1.403-4.716c0-2.251.877-4.41 2.438-6.002a8.244 8.244 0 0 1 5.887-2.487Zm0-1.07a9.248 9.248 0 0 0-5.208 1.615 9.524 9.524 0 0 0-3.45 4.293 9.736 9.736 0 0 0-.531 5.524 9.62 9.62 0 0 0 2.568 4.893 9.321 9.321 0 0 0 4.802 2.614 9.209 9.209 0 0 0 5.417-.546A9.418 9.418 0 0 0 32.3 30.31a9.695 9.695 0 0 0 1.578-5.312 9.72 9.72 0 0 0-.714-3.66 9.571 9.571 0 0 0-2.034-3.102 9.363 9.363 0 0 0-3.045-2.07 9.215 9.215 0 0 0-3.59-.726Zm4.975 12.245a3.476 3.476 0 0 0-.302-1.529 3.218 3.218 0 0 0-.808-1.039 3.997 3.997 0 0 0-1.123-.662 14.42 14.42 0 0 0-1.298-.463c-.442-.133-.88-.275-1.299-.4a5.097 5.097 0 0 1-1.116-.494c-.31-.178-.58-.419-.795-.708a1.787 1.787 0 0 1-.302-1.072 1.64 1.64 0 0 1 .214-.874c.138-.223.323-.412.542-.552.222-.143.467-.241.724-.292.252-.052.509-.078.766-.076.376-.005.748.066 1.097.209.315.13.602.322.847.562.243.244.444.527.597.838.163.328.28.677.348 1.039l.055.036c.219-.55.467-1.086.743-1.608.263-.503.545-.993.857-1.5l-.072-.036c-.135.084-.279.154-.428.209-.143.05-.293.077-.445.08a2.732 2.732 0 0 1-.769-.107l-.818-.248c-.298-.09-.626-.172-.974-.245a6.293 6.293 0 0 0-1.246-.11c-.494.001-.985.066-1.463.193-.453.116-.881.314-1.266.582a2.883 2.883 0 0 0-.926 1.081c-.215.434-.32.916-.304 1.401-.02.538.085 1.073.305 1.562.182.4.452.75.789 1.026.348.271.736.486 1.148.636.429.159.864.3 1.299.427.434.125.882.255 1.298.384.415.129 1.759.946 1.947 1.26.215.368.32.791.302 1.218.014.341-.07.68-.24.973a2.015 2.015 0 0 1-.617.639c-.257.162-.54.274-.837.33a4.314 4.314 0 0 1-.909.1 4.091 4.091 0 0 1-1.5-.248 2.99 2.99 0 0 1-1.08-.708 3.317 3.317 0 0 1-.685-1.072 5.762 5.762 0 0 1-.357-1.324c-.243.64-.53 1.263-.857 1.863a40.006 40.006 0 0 1-.996 1.737c.184-.082.374-.15.568-.201a2.55 2.55 0 0 1 .714-.11c.341 0 .68.053 1.006.156.325.102.65.212 1 .33.35.12.69.226 1.06.332.39.104.792.155 1.195.152a6.205 6.205 0 0 0 1.71-.225 4.22 4.22 0 0 0 1.41-.692c.395-.303.719-.695.944-1.145.24-.503.36-1.058.347-1.618v.003Zm15.718-3.574-.04-.036a.217.217 0 0 1-.148-.04.284.284 0 0 1-.15-.037h-.113a.275.275 0 0 0-.153-.04c-.036 0-.11-.039-.15-.039h-.148c-.04-.036-.078-.036-.153-.036h-.65a4.664 4.664 0 0 0-1.923.463 4.75 4.75 0 0 0-1.572 1.224l-4.163 4.756a.687.687 0 0 1-.15.192c1.655.993 3.986.88 5.303-.662l.452-.5 1.09-1.264c.265-.308.568-.58.902-.807a20.124 20.124 0 0 1-2.401 7.376l.107.331c.14.317.242.65.301.993.087.313.137.635.15.96a21.115 21.115 0 0 0 3.612-10.547 5.018 5.018 0 0 1 3.009 0 5.286 5.286 0 0 0-3.009-2.317l-.003.03ZM29.57 43.633v-.04c-.04.04-.114.04-.153.08l.14-.04h.012Zm13.442-23.215c.01.024.017.05.02.076l-.02-.076Zm-.02-.08a.31.31 0 0 0 .02.08l-.02-.08Zm-2.784-8.859a5.4 5.4 0 0 1 2.145-2.184c-3.31-.662-6.66 1.807-6.393 5.328l.376 6.367v.232c1.88-.5 3.42-2.264 3.31-4.26l-.038-.688-.114-1.687a6.77 6.77 0 0 1 .075-1.228 18.764 18.764 0 0 1 3.424 6.98c.102.032.203.07.301.115.325.143.638.31.938.5.263.188.53.38.753.572a21.075 21.075 0 0 0-4.777-10.047Zm-5.44 12.592c2.104-2.263 4.366-4.335 7.764-2.836a5.96 5.96 0 0 1 1.467.937c.364.338.68.725.94 1.151a5.415 5.415 0 0 0-3.086.02 5.507 5.507 0 0 0-2.593 1.708l-3.687 4.24-.45.492a4.05 4.05 0 0 1-2.25 1.344 10.621 10.621 0 0 0 1.905-7.062l-.01.006Zm4.077 13.695.039.04.113.112.114.116c.036.04.036.076.075.116l.113.115c.036.037.036.077.075.113l.11.116c0 .04.04.076.075.116.035.04.039.076.078.115.039.04.035.076.074.113.04.036.036.08.075.155.039.077.039.077.075.116a.037.037 0 0 0 .024.035c.005.002.01.002.015.002a5.98 5.98 0 0 1 .525 3.796 5.645 5.645 0 0 0-2.142-2.185 20.358 20.358 0 0 1-9.892 4.912c.224-.268.412-.537.6-.805.189-.268.325-.615.49-.92l.101-.307a18.837 18.837 0 0 0 6.816-3.528 6.262 6.262 0 0 0-1.204-.04l-1.656.076-.649.08c-1.992.112-3.683-1.496-4.219-3.416h.263l6.241-.384a4.816 4.816 0 0 1 1.96.289c.627.23 1.202.59 1.688 1.055l.023-.003Zm-12.58-2.406a4.067 4.067 0 0 0 2.652.758l.649-.04 5.611-.338a5.51 5.51 0 0 1 2.219.318 5.592 5.592 0 0 1 1.92 1.178c.04.06.09.111.149.152.019.022.031.048.035.077a.123.123 0 0 1 .075.04c.039.036.039.075.078.075 0 .02.009.04.023.053a.078.078 0 0 0 .052.023c0 .04.035.04.035.077l.078.079c0 .036.036.036.036.076l.075.076c.038.04.038.04.038.076h.04c0 .04 0 .077.035.077.004.029.018.056.04.076.035.04.035.079.074.079.039 0 .039.076.039.113 0 .036.035.04.074.076.04.036 0 .04.036.08.036.039.039.036.039.075v-.04a.225.225 0 0 0 .039-.152v-.036a.14.14 0 0 0 .036-.113v-.192l.039-.04v-1.151l-.04-.036v-.232c0-.037-.035-.037-.035-.076v-.146l-.039-.04v-.152a.038.038 0 0 1-.028-.011.04.04 0 0 1-.011-.029v-.099c0-.04-.036-.04-.036-.076v-.076c-.074-.192-.113-.33-.188-.5-1.402-3.64-4.589-3.7-7.744-3.607a10.237 10.237 0 0 1-6.078 3.541l-.017.007ZM26.697.488A1.526 1.526 0 0 1 27.807 0a1.5 1.5 0 0 1 1.11.488c.288.296.45.696.45 1.112 0 .417-.162.817-.45 1.112a1.578 1.578 0 0 1-1.11.46c-.415 0-.813-.165-1.11-.46a1.591 1.591 0 0 1-.45-1.112c0-.416.161-.816.45-1.112Zm-6.43 4.716c.154-.28.343-.537.562-.767a20.336 20.336 0 0 0-9.889 4.871 5.517 5.517 0 0 1-2.106-2.184c-.854 3.796 2.132 6.774 5.19 6.52l6.28-.385h.227c-.49-1.919-2.22-3.527-4.22-3.375l-.649.04-1.655.076c-.401.043-.806.03-1.204-.04a18.118 18.118 0 0 1 7.01-3.528.32.32 0 0 0-.185.04c.064-.104.114-.215.15-.331.149-.304.301-.612.49-.92v-.017ZM8.565 11.132a5.51 5.51 0 0 0-.191 1.482c.029.577.13 1.147.302 1.698 1.31 3.819 4.663 3.888 7.915 3.938a10.269 10.269 0 0 1 5.576-3.495 4.072 4.072 0 0 0-2.272-.662h-.649l-5.595.146a5.516 5.516 0 0 1-2.98-.81 5.665 5.665 0 0 1-2.106-2.297Zm-.425 3.872a21.26 21.26 0 0 0-2.496 7.578c.336-.225.642-.494.91-.8l1.083-1.265.454-.496c1.328-1.526 3.661-1.622 5.307-.613a.658.658 0 0 0-.15.192l-4.219 4.723a4.758 4.758 0 0 1-1.581 1.207 4.676 4.676 0 0 1-1.927.448h-.649c-.075 0-.114 0-.15-.04H4.57c-.036 0-.11-.04-.15-.04a.265.265 0 0 1-.148-.04h-.114a.272.272 0 0 0-.15-.04.224.224 0 0 0-.152-.039l-.036-.04a5.29 5.29 0 0 1-2.992-2.316 5.018 5.018 0 0 0 3.009.023A21.98 21.98 0 0 1 7.59 12.71c.009.325.057.647.142.96.057.342.155.675.293.993l.107.33.006.01ZM.451 20.517c-.289.295-.451.695-.451 1.112 0 .417.162.817.45 1.112a1.526 1.526 0 0 0 1.11.489 1.5 1.5 0 0 0 1.11-.489 1.572 1.572 0 0 0 .454-1.112 1.595 1.595 0 0 0-.453-1.112 1.578 1.578 0 0 0-1.11-.459c-.415 0-.813.165-1.11.459ZM26.106 4.423c3.729.227 7.323 1.5 10.386 3.68-.316.019-.63.058-.941.116-.442.125-.876.277-1.299.457a18.73 18.73 0 0 0-7.27-2.452c.256.326.532.635.828.923l1.23 1.125.487.46c1.467 1.304 1.58 3.68.65 5.408-.075-.076-.15-.116-.19-.192L25.28 9.715a4.895 4.895 0 0 1-1.195-1.606 4.986 4.986 0 0 1-.46-1.961v-.384a.307.307 0 0 1 .035-.153v-.268c0-.076.04-.115.04-.152v-.155a.221.221 0 0 0 .038-.153c0-.04.036-.076.036-.152s.045-.08.045-.1c0-.019.036-.115.036-.155V4.4c.4-1.242 1.2-2.31 2.272-3.028a5.992 5.992 0 0 0 0 3.068l-.02-.017Zm5.355 12.821a10.549 10.549 0 0 1 3.294 6.682c.65-.814.973-1.849.903-2.896l-.036-.662-.34-5.715c-.247-3.551 2.631-5.166 2.631-5.216 0-.05.078-.04.114-.04.036 0 .039-.036.075-.036-.036 0-.036-.04-.036-.04-6.537 0-6.709 3.905-6.605 7.913v.01ZM29.22 14.18c.66.599 1.115 1.398 1.298 2.28a10.125 10.125 0 0 0-6.02-1.986c-.302 0-.604 0-.9.04-2.213-2.145-4.241-4.451-2.768-7.943.24-.522.543-1.011.902-1.456.332-.37.712-.693 1.13-.96a5.802 5.802 0 0 0 .014 3.138 5.71 5.71 0 0 0 1.641 2.654l4.22 3.76.49.46-.007.013ZM15.072 41.6a1.91 1.91 0 0 1-.296.153 7.116 7.116 0 0 1-.973.307 4.22 4.22 0 0 1-.938.116 19.873 19.873 0 0 0 10.336 3.68c.3 1 .3 2.068 0 3.068a5.587 5.587 0 0 0 2.272-3.028v-.08a.141.141 0 0 0 .036-.112v-.036a.136.136 0 0 0 .039-.116.279.279 0 0 0 .039-.152.243.243 0 0 0 .036-.153.295.295 0 0 1 .039-.155v-.153a.152.152 0 0 1 .035-.115v-.689a4.974 4.974 0 0 0-.459-1.961 4.887 4.887 0 0 0-1.196-1.606l-4.68-4.223c-.074-.076-.15-.116-.185-.192-.974 1.727-.866 4.104.6 5.447l.526.427 1.243 1.105c.283.29.547.598.789.924a18.756 18.756 0 0 1-7.263-2.456Zm-1.201-.767c.415.267.792.536 1.204.767a18.501 18.501 0 0 1-1.201-.767h-.003ZM6.312 29.931a.222.222 0 0 0-.02-.149c0 .047.023.096.036.143l-.016.006Zm5.754 9.449c-.036.036-.036.036-.036.076s-.074.076-.113.076l-.114.116-.113.115c-.036.037-.075.037-.11.077l-.114.112c-.04 0-.075.04-.114.08-.039.04-.074.036-.113.076-.04.04-.075.076-.11.076-.036 0-.079.076-.114.076-.036 0-.114.076-.153.076-.039 0-.075.08-.11.08l-.04.036h-.035a5.105 5.105 0 0 1-3.687.536 5.622 5.622 0 0 0 2.142-2.184 20.682 20.682 0 0 1-4.813-10.05l.789.572c.302.192.604.33.905.5.102.032.202.07.299.115a19.384 19.384 0 0 0 3.46 6.99c.052-.407.065-.819.039-1.228l-.114-1.688-.036-.688c-.113-1.986 1.467-3.76 3.308-4.26 0 .08.038.156.038.232l.377 6.367a5.094 5.094 0 0 1-.284 1.995 5.023 5.023 0 0 1-1.034 1.719Zm2.272-12.669a4.236 4.236 0 0 0-.649 2.542l.036.691.324 5.676a5.913 5.913 0 0 1-.319 2.26 5.834 5.834 0 0 1-1.148 1.96l-.149.152-.075.076a.136.136 0 0 1-.074.04v.036a.135.135 0 0 1-.075.04c0 .04-.039.04-.039.076s-.075.04-.075.076a.122.122 0 0 0-.074.04c-.04.04-.075.04-.075.076a.135.135 0 0 0-.078.04c-.035.036-.074.036-.074.076a.135.135 0 0 0-.075.04c-.039.036-.075.036-.075.076h-.029a.126.126 0 0 1-.075.036c0 .04-.038.04-.074.076-.036.037-.04 0-.075.04-.036.04-.039.04-.078.04a.113.113 0 0 1-.074.036c0 .04 0 .04.039.04a.23.23 0 0 1 .149.036h.227l.036.04h.376v.04h.565v-.034h.415l.036-.04h.227v-.036h.15c.039 0 .039-.04.074-.04h.114a.12.12 0 0 1 .074-.036h.075c0-.01.004-.02.011-.028a.039.039 0 0 1 .028-.012h.036c.188-.04.324-.115.49-.152 3.45-1.403 3.612-4.494 3.53-7.611a10.53 10.53 0 0 1-3.57-6.364l.017-.004ZM5.935 37.574a1.539 1.539 0 0 0-.87.257 1.584 1.584 0 0 0-.584.707 1.62 1.62 0 0 0 .318 1.739 1.534 1.534 0 0 0 1.697.367c.286-.117.532-.318.707-.578a1.613 1.613 0 0 0 .164-1.492 1.592 1.592 0 0 0-.332-.521 1.556 1.556 0 0 0-1.1-.48Zm19.506-2.102c2.22 2.145 4.248 4.448 2.778 7.943a5.639 5.639 0 0 1-.941 1.46 4.575 4.575 0 0 1-1.09.992 5.79 5.79 0 0 0-.039-3.154 5.694 5.694 0 0 0-1.682-2.647l-4.164-3.796-.49-.46a4.214 4.214 0 0 1-1.298-2.254 10.122 10.122 0 0 0 5.994 1.96c.325 0 .624 0 .929-.044h.003Zm-3.129 11.805c.29.302.453.709.453 1.132 0 .423-.163.83-.453 1.132a1.53 1.53 0 0 1-1.09.459c-.409 0-.801-.165-1.09-.46a1.642 1.642 0 0 1-.45-1.131c0-.423.16-.829.45-1.132a1.53 1.53 0 0 1 1.09-.46c.409 0 .8.166 1.09.46Zm17.64-3.336c0-.31-.09-.615-.26-.873-.17-.259-.41-.46-.692-.58a1.513 1.513 0 0 0-1.68.342c-.216.22-.363.5-.422.804-.06.305-.029.621.088.909.116.287.314.532.568.705.253.173.551.265.856.265a1.497 1.497 0 0 0 1.096-.454 1.553 1.553 0 0 0 .446-1.118Zm8.597-16.683a1.6 1.6 0 0 1 .334 1.713 1.566 1.566 0 0 1-.568.706 1.521 1.521 0 0 1-1.713 0 1.566 1.566 0 0 1-.568-.706 1.6 1.6 0 0 1 .334-1.713 1.538 1.538 0 0 1 1.09-.462 1.514 1.514 0 0 1 1.09.462ZM43.057 9.232c.31-.004.612.086.87.257.26.172.463.418.585.707a1.62 1.62 0 0 1-.318 1.74c-.215.225-.492.38-.794.445a1.533 1.533 0 0 1-.902-.08 1.566 1.566 0 0 1-.708-.576 1.614 1.614 0 0 1-.274-.881c.002-.42.164-.823.452-1.123.287-.301.678-.476 1.09-.49Zm-34-3.184c.008-.309.105-.609.28-.862.173-.253.417-.448.699-.561a1.514 1.514 0 0 1 1.666.365 1.6 1.6 0 0 1 .317 1.708 1.565 1.565 0 0 1-.567.7 1.52 1.52 0 0 1-.853.262 1.523 1.523 0 0 1-1.102-.476 1.582 1.582 0 0 1-.44-1.136Zm4.814 14.138a4.202 4.202 0 0 1 2.255-1.324 10.612 10.612 0 0 0-1.947 6.14c0 .31 0 .621.039.926-2.084 2.257-4.355 4.325-7.753 2.826a5.712 5.712 0 0 1-1.432-.923 5.6 5.6 0 0 1-.973-1.148 5.444 5.444 0 0 0 3.078-.008 5.534 5.534 0 0 0 2.601-1.68l3.723-4.303.409-.506Z" fill="#BB9C13"/></svg>