<svg width="74" height="72" fill="none" xmlns="http://www.w3.org/2000/svg"><path fill-rule="evenodd" clip-rule="evenodd" d="M36.034 19.824c1.985 0 3.925.598 5.576 1.717a10.16 10.16 0 0 1 3.696 4.575c.76 1.862.959 3.911.571 5.888a10.243 10.243 0 0 1-2.747 5.219 9.99 9.99 0 0 1-5.138 2.789 9.893 9.893 0 0 1-5.8-.58 10.071 10.071 0 0 1-4.503-3.754 10.305 10.305 0 0 1-1.692-5.662c0-2.703 1.058-5.296 2.94-7.207a9.96 9.96 0 0 1 7.097-2.985Zm0-1.284c-2.236.002-4.42.677-6.279 1.94a11.443 11.443 0 0 0-4.16 5.153 11.645 11.645 0 0 0-.64 6.633 11.536 11.536 0 0 0 3.097 5.875 11.25 11.25 0 0 0 5.79 3.139c2.192.442 4.465.213 6.53-.657a11.343 11.343 0 0 0 5.071-4.23 11.606 11.606 0 0 0 1.903-6.377 11.63 11.63 0 0 0-.862-4.394 11.488 11.488 0 0 0-2.452-3.725 11.29 11.29 0 0 0-3.67-2.487 11.15 11.15 0 0 0-4.328-.87Zm5.998 14.702a4.16 4.16 0 0 0-.364-1.835 3.864 3.864 0 0 0-.974-1.248 4.82 4.82 0 0 0-1.354-.795 17.394 17.394 0 0 0-1.565-.556c-.532-.16-1.06-.33-1.565-.48a6.156 6.156 0 0 1-1.346-.593 3.147 3.147 0 0 1-.959-.85 2.138 2.138 0 0 1-.364-1.288 1.963 1.963 0 0 1 .258-1.049c.166-.268.39-.495.654-.663.267-.171.563-.29.872-.35.304-.063.614-.093.924-.091.453-.007.902.078 1.322.25.38.157.727.386 1.022.675.292.293.535.633.72 1.006.196.393.337.814.418 1.247l.067.044c.264-.66.563-1.304.896-1.931.317-.604.657-1.192 1.033-1.8l-.086-.044c-.164.101-.337.185-.517.25-.172.061-.353.094-.536.096a3.307 3.307 0 0 1-.927-.127l-.986-.298c-.36-.107-.755-.207-1.174-.294a7.62 7.62 0 0 0-1.503-.131 6.92 6.92 0 0 0-1.764.23 4.728 4.728 0 0 0-1.526.7c-.474.33-.857.776-1.117 1.297-.259.52-.385 1.1-.366 1.683a4.192 4.192 0 0 0 .367 1.875c.22.48.546.9.951 1.232.42.325.888.582 1.386.763.516.19 1.04.361 1.565.512.524.151 1.064.306 1.565.461.5.155 2.12 1.137 2.348 1.514.258.441.385.95.363 1.462.017.41-.084.816-.29 1.169-.188.308-.442.57-.743.767a2.93 2.93 0 0 1-1.01.397c-.36.078-.726.118-1.095.12a4.95 4.95 0 0 1-1.807-.299 3.605 3.605 0 0 1-1.303-.85 3.979 3.979 0 0 1-.826-1.288 6.902 6.902 0 0 1-.43-1.589 17.926 17.926 0 0 1-1.033 2.237 47.705 47.705 0 0 1-1.202 2.086c.222-.099.451-.18.685-.242.28-.084.57-.129.86-.131.412 0 .821.063 1.214.186.391.124.782.255 1.205.398.423.143.834.27 1.28.397.47.126.954.187 1.44.183a7.504 7.504 0 0 0 2.061-.27 5.098 5.098 0 0 0 1.699-.83 3.96 3.96 0 0 0 1.138-1.376c.29-.604.434-1.27.419-1.943v.004Zm18.95-4.291-.047-.044a.263.263 0 0 1-.18-.047.344.344 0 0 1-.18-.044h-.137a.333.333 0 0 0-.184-.048c-.043 0-.133-.048-.18-.048h-.18c-.047-.043-.094-.043-.184-.043h-.782a5.642 5.642 0 0 0-2.32.556c-.726.35-1.372.85-1.894 1.47l-5.02 5.71a.823.823 0 0 1-.18.23c1.995 1.193 4.804 1.058 6.393-.794l.544-.6 1.315-1.518c.319-.37.684-.696 1.087-.97a24.096 24.096 0 0 1-2.895 8.857l.129.398c.17.38.292.78.364 1.192.104.376.164.762.18 1.152a25.284 25.284 0 0 0 4.355-12.663 6.073 6.073 0 0 1 3.627 0 6.37 6.37 0 0 0-3.627-2.782l-.004.036Zm-5.92 14.15 5.92-14.15-5.92 14.15Zm-12.913 9.29v-.048c-.047.048-.136.048-.184.095l.169-.047h.015Zm16.207-27.874c.013.029.02.06.024.09l-.024-.09Zm-.023-.096a.373.373 0 0 0 .023.096l-.023-.096Zm-3.357-10.637a6.495 6.495 0 0 1 2.586-2.623c-3.99-.794-8.029 2.17-7.708 6.398l.454 7.645v.278c2.265-.6 4.124-2.718 3.99-5.114l-.046-.826-.137-2.027a8.097 8.097 0 0 1 .09-1.474 22.49 22.49 0 0 1 4.128 8.38c.124.04.245.086.364.14.391.17.769.37 1.13.6.318.226.639.456.909.687a25.261 25.261 0 0 0-5.76-12.064Zm-6.558 15.12c2.535-2.719 5.263-5.206 9.36-3.406.64.286 1.235.665 1.768 1.124.439.406.82.872 1.135 1.383a6.554 6.554 0 0 0-3.722.024 6.643 6.643 0 0 0-3.126 2.05l-4.445 5.09-.544.593a4.888 4.888 0 0 1-2.711 1.613 12.717 12.717 0 0 0 2.297-8.48l-.012.008Zm4.914 16.442.047.047.137.135.137.14c.043.047.043.09.09.139l.137.139c.043.043.043.091.09.135l.133.139c0 .047.047.091.09.139.043.047.047.091.094.139.047.048.043.091.09.135.047.044.043.095.09.187.047.091.047.091.09.139a.045.045 0 0 0 .014.032.043.043 0 0 0 .033.012c.707 1.404.93 3.009.634 4.557a6.79 6.79 0 0 0-2.582-2.622 24.585 24.585 0 0 1-11.927 5.896c.27-.322.497-.643.724-.965.227-.322.391-.74.59-1.105l.122-.37a22.743 22.743 0 0 0 8.217-4.235 7.584 7.584 0 0 0-1.452-.048l-1.995.092-.783.095c-2.402.135-4.44-1.796-5.086-4.1h.316l7.525-.462a5.83 5.83 0 0 1 2.363.347 5.896 5.896 0 0 1 2.035 1.267l.027-.004Zm-15.166-2.89c.932.667 2.06.988 3.197.91l.782-.047 6.766-.405a6.67 6.67 0 0 1 2.674.382c.858.308 1.645.79 2.315 1.414.048.071.11.133.18.183a.172.172 0 0 1 .043.091.148.148 0 0 1 .09.048c.047.043.047.091.094.091a.096.096 0 0 0 .09.092c0 .047.043.047.043.09l.094.096c0 .044.043.044.043.092l.09.091c.047.048.047.048.047.091h.047c0 .048 0 .092.043.092a.151.151 0 0 0 .047.091c.043.048.043.096.09.096.046 0 .046.091.046.135 0 .043.044.047.09.091.047.044 0 .048.044.095.043.048.046.044.046.092v-.048a.27.27 0 0 0 .047-.183v-.043a.167.167 0 0 0 .044-.136v-.23l.046-.048v-1.382l-.047-.044v-.278c0-.044-.042-.044-.042-.092v-.175l-.048-.047v-.183a.047.047 0 0 1-.033-.014.048.048 0 0 1-.014-.034v-.119c0-.047-.042-.047-.042-.091v-.092c-.09-.23-.137-.397-.227-.6-1.69-4.37-5.533-4.442-9.337-4.33a12.354 12.354 0 0 1-7.328 4.25l-.02.009Zm.52-41.868a1.84 1.84 0 0 1 1.339-.587 1.815 1.815 0 0 1 1.338.587c.348.355.543.835.543 1.335s-.195.98-.543 1.335a1.906 1.906 0 0 1-1.338.551c-.5 0-.98-.197-1.338-.55a1.906 1.906 0 0 1-.544-1.336c0-.5.196-.98.544-1.335Zm-7.75 5.662c.185-.335.412-.645.676-.922a24.557 24.557 0 0 0-11.922 5.85 6.636 6.636 0 0 1-2.54-2.623c-1.029 4.558 2.57 8.134 6.257 7.828l7.571-.461h.274c-.59-2.305-2.676-4.236-5.087-4.053l-.782.047-1.996.092a5.175 5.175 0 0 1-1.451-.048 21.877 21.877 0 0 1 8.451-4.236.386.386 0 0 0-.223.048c.077-.124.137-.258.18-.397.18-.366.364-.735.591-1.105v-.02Zm-14.11 7.117a6.594 6.594 0 0 0-.232 1.78c.036.692.158 1.377.364 2.038 1.581 4.586 5.623 4.67 9.544 4.729a12.387 12.387 0 0 1 6.722-4.196 4.925 4.925 0 0 0-2.739-.795h-.782l-6.746.175a6.671 6.671 0 0 1-3.592-.974 6.814 6.814 0 0 1-2.54-2.757Zm-.513 4.649a25.456 25.456 0 0 0-3.01 9.1 5.55 5.55 0 0 0 1.096-.962l1.307-1.518.548-.596c1.6-1.832 4.414-1.947 6.398-.735a.793.793 0 0 0-.18.23l-5.087 5.67a5.734 5.734 0 0 1-1.907 1.45 5.656 5.656 0 0 1-2.323.537h-.782c-.09 0-.137 0-.18-.048h-.184c-.043 0-.133-.047-.18-.047a.32.32 0 0 1-.18-.048h-.137a.33.33 0 0 0-.18-.048.27.27 0 0 0-.184-.047l-.043-.048a6.375 6.375 0 0 1-3.608-2.782 6.073 6.073 0 0 0 3.627.028 26.32 26.32 0 0 1 4.527-12.89c.011.39.07.777.173 1.152.068.411.186.812.352 1.192l.129.398.008.012Zm-9.27 6.62A1.906 1.906 0 0 0 6.5 25.97c0 .5.195.98.543 1.335a1.838 1.838 0 0 0 1.338.586 1.814 1.814 0 0 0 1.339-.586 1.886 1.886 0 0 0 .546-1.335 1.91 1.91 0 0 0-.546-1.335 1.906 1.906 0 0 0-1.339-.551c-.5 0-.98.197-1.338.55ZM37.974 5.312a24.169 24.169 0 0 1 12.522 4.419c-.381.022-.76.069-1.135.14-.533.149-1.055.332-1.565.547a22.643 22.643 0 0 0-8.765-2.944c.308.392.641.762.998 1.109l1.483 1.35.587.553c1.768 1.566 1.905 4.419.782 6.493-.09-.092-.18-.14-.227-.23l-5.677-5.083a5.881 5.881 0 0 1-1.441-1.929 5.963 5.963 0 0 1-.555-2.354v-.461a.365.365 0 0 1 .043-.183v-.322c0-.091.047-.139.047-.183v-.186a.265.265 0 0 0 .047-.183c0-.048.043-.092.043-.183s.055-.095.055-.12c0-.023.043-.138.043-.186v-.091a6.933 6.933 0 0 1 2.739-3.636 7.167 7.167 0 0 0 0 3.683l-.024-.02Zm6.457 15.394a12.647 12.647 0 0 1 3.971 8.022 5.018 5.018 0 0 0 1.088-3.476l-.043-.795-.41-6.862c-.298-4.264 3.172-6.203 3.172-6.263 0-.06.094-.047.137-.047.043 0 .047-.044.09-.044-.043 0-.043-.048-.043-.048-7.88 0-8.088 4.689-7.962 9.501v.012Zm-2.704-3.68a5.084 5.084 0 0 1 1.565 2.738 12.242 12.242 0 0 0-7.258-2.384c-.364 0-.728 0-1.084.048-2.669-2.575-5.114-5.345-3.338-9.537A8.211 8.211 0 0 1 32.7 6.143c.4-.445.858-.833 1.361-1.152a6.94 6.94 0 0 0 .017 3.767 6.853 6.853 0 0 0 1.98 3.186l5.086 4.514.59.553-.007.015ZM24.67 49.951a2.292 2.292 0 0 1-.356.183 8.587 8.587 0 0 1-1.174.37 5.1 5.1 0 0 1-1.131.138 24.023 24.023 0 0 0 12.462 4.419c.36 1.2.36 2.483 0 3.683a6.712 6.712 0 0 0 2.74-3.636v-.095a.168.168 0 0 0 .042-.135v-.044a.163.163 0 0 0 .047-.139.333.333 0 0 0 .047-.182.29.29 0 0 0 .043-.183.354.354 0 0 1 .047-.187v-.183a.183.183 0 0 1 .043-.139v-.826a5.952 5.952 0 0 0-.553-2.355 5.868 5.868 0 0 0-1.442-1.929l-5.642-5.07c-.09-.091-.18-.14-.224-.23-1.173 2.074-1.044 4.927.724 6.54l.634.513 1.499 1.327c.34.347.659.718.95 1.108a22.675 22.675 0 0 1-8.756-2.948Zm-1.448-.922c.5.322.955.644 1.452.922a22.345 22.345 0 0 1-1.448-.922h-.004ZM14.11 35.94a.266.266 0 0 0-.024-.178c0 .055.028.115.043.17l-.02.008Zm6.937 11.345c-.043.043-.043.043-.043.091s-.09.092-.137.092l-.137.138-.137.14c-.043.043-.09.043-.133.091l-.137.135c-.047 0-.09.048-.137.096-.046.047-.09.043-.136.09-.047.048-.09.092-.133.092-.044 0-.094.092-.137.092-.043 0-.137.091-.184.091-.047 0-.09.095-.133.095l-.047.044h-.043a6.177 6.177 0 0 1-4.445.644 6.763 6.763 0 0 0 2.582-2.623 24.79 24.79 0 0 1-5.803-12.067l.951.687c.364.23.728.398 1.092.6.123.04.243.086.36.14a23.234 23.234 0 0 0 4.171 8.391c.063-.488.078-.982.047-1.474l-.137-2.026-.043-.827c-.137-2.384 1.769-4.514 3.987-5.114 0 .096.047.187.047.278l.454 7.645a6.095 6.095 0 0 1-.343 2.395 6.025 6.025 0 0 1-1.246 2.064Zm2.74-15.21a5.07 5.07 0 0 0-.783 3.05l.043.831.391 6.815c.05.921-.08 1.843-.384 2.713a6.996 6.996 0 0 1-1.384 2.353l-.18.183-.09.091a.164.164 0 0 1-.09.048v.044a.164.164 0 0 1-.09.047c0 .048-.047.048-.047.092 0 .043-.09.047-.09.091a.148.148 0 0 0-.09.048c-.047.047-.09.047-.09.091a.163.163 0 0 0-.094.048c-.043.044-.09.044-.09.091a.163.163 0 0 0-.09.048c-.047.044-.09.044-.09.091h-.036a.153.153 0 0 1-.09.044c0 .048-.047.048-.09.091-.043.044-.047 0-.09.048s-.047.048-.093.048a.136.136 0 0 1-.09.043c0 .048 0 .048.046.048a.279.279 0 0 1 .18.044h.274l.043.047h.454v.048h.681v-.04h.501l.043-.047h.274v-.044h.18c.047 0 .047-.048.09-.048h.137a.143.143 0 0 1 .09-.043h.09c0-.013.005-.025.014-.034a.047.047 0 0 1 .033-.014h.043c.227-.048.391-.14.59-.183 4.16-1.685 4.356-5.396 4.258-9.139a12.63 12.63 0 0 1-4.304-7.64l.02-.005Zm-10.131 13.04a1.862 1.862 0 0 0-1.05.309 1.905 1.905 0 0 0-.703.849 1.938 1.938 0 0 0 .382 2.088 1.856 1.856 0 0 0 2.046.44c.346-.14.643-.381.853-.693a1.932 1.932 0 0 0 .197-1.792 1.91 1.91 0 0 0-1.006-1.047 1.851 1.851 0 0 0-.719-.154Zm23.516-2.523c2.677 2.575 5.122 5.34 3.35 9.536a6.764 6.764 0 0 1-1.135 1.753c-.372.466-.816.87-1.315 1.192a6.925 6.925 0 0 0-.046-3.787 6.834 6.834 0 0 0-2.028-3.179l-5.02-4.557-.59-.553a5.056 5.056 0 0 1-1.566-2.706 12.236 12.236 0 0 0 7.227 2.353c.392 0 .752 0 1.12-.052h.003ZM33.4 56.766a1.96 1.96 0 0 1 0 2.718c-.349.353-.822.551-1.314.551-.493 0-.966-.198-1.315-.552a1.967 1.967 0 0 1-.543-1.359c0-.507.195-.994.543-1.358.349-.354.822-.552 1.315-.552.492 0 .965.198 1.314.552Zm21.267-4.006c0-.373-.11-.738-.314-1.048a1.865 1.865 0 0 0-.834-.696 1.833 1.833 0 0 0-2.025.41 1.914 1.914 0 0 0-.403 2.057c.14.344.379.64.684.846.306.208.666.319 1.033.319a1.81 1.81 0 0 0 1.321-.546 1.866 1.866 0 0 0 .538-1.342Zm10.365-20.03a1.915 1.915 0 0 1 .402 2.057c-.14.344-.379.639-.685.846a1.839 1.839 0 0 1-2.064 0 1.881 1.881 0 0 1-.685-.847 1.915 1.915 0 0 1 .402-2.056 1.854 1.854 0 0 1 1.315-.555 1.83 1.83 0 0 1 1.315.555Zm-6.62-21.644a1.86 1.86 0 0 1 1.049.309c.312.206.557.501.703.849a1.938 1.938 0 0 1-.382 2.088c-.26.27-.593.457-.957.535a1.855 1.855 0 0 1-1.089-.095 1.888 1.888 0 0 1-.853-.693 1.932 1.932 0 0 1-.33-1.058c.003-.504.198-.987.544-1.348.347-.361.818-.572 1.314-.587ZM17.42 7.263c.01-.37.126-.73.336-1.035.21-.304.503-.538.843-.674a1.832 1.832 0 0 1 2.01.44 1.914 1.914 0 0 1 .382 2.05c-.142.342-.38.634-.685.84a1.838 1.838 0 0 1-1.027.315 1.842 1.842 0 0 1-1.329-.572 1.899 1.899 0 0 1-.53-1.364Zm5.803 16.975a5.07 5.07 0 0 1 2.72-1.59 12.705 12.705 0 0 0-2.348 7.372c0 .373 0 .747.047 1.112-2.512 2.71-5.252 5.194-9.348 3.394a6.888 6.888 0 0 1-1.726-1.109 6.727 6.727 0 0 1-1.174-1.379c1.214.353 2.5.35 3.712-.008a6.675 6.675 0 0 0 3.136-2.018l4.488-5.166.493-.608ZM5.764 69.882c.006.323-.064.643-.204.934-.13.26-.317.486-.548.66a2.414 2.414 0 0 1-.81.397c-.322.089-.655.133-.99.13a2.541 2.541 0 0 1-.692-.083c-.215-.06-.419-.123-.614-.19-.196-.068-.392-.127-.58-.187a1.93 1.93 0 0 0-.583-.092c-.14.004-.28.028-.414.072-.112.031-.222.07-.329.115.188-.302.391-.636.58-1.001.191-.353.356-.722.492-1.1.039.271.109.538.208.794.09.23.223.44.39.62.178.175.39.31.623.397.285.103.586.153.888.147.178 0 .355-.02.528-.06a1.35 1.35 0 0 0 .486-.198c.143-.094.265-.219.356-.366.098-.169.147-.363.14-.56a1.263 1.263 0 0 0-.176-.703 1.374 1.374 0 0 0-.47-.445 2.912 2.912 0 0 0-.664-.286l-.76-.219a11.27 11.27 0 0 1-.758-.246 2.54 2.54 0 0 1-.67-.366 1.688 1.688 0 0 1-.47-.588 2.042 2.042 0 0 1-.175-.902c-.008-.296.06-.59.2-.85.123-.233.3-.432.516-.58a2.3 2.3 0 0 1 .74-.358c.275-.073.56-.11.845-.111.242-.002.485.02.723.063.208.044.392.092.568.144l.477.142c.144.04.293.06.442.06a1.011 1.011 0 0 0 .505-.167h.043c-.18.29-.344.576-.497.866-.154.313-.293.634-.415.962l-.03-.024a2.296 2.296 0 0 0-.2-.6 1.811 1.811 0 0 0-.349-.485 1.562 1.562 0 0 0-1.13-.453c-.15.001-.3.017-.447.048-.148.03-.29.087-.418.167a.929.929 0 0 0-.438.823c-.01.22.051.438.176.62.124.162.28.298.457.397a3.1 3.1 0 0 0 .654.278l.751.23c.258.08.509.171.755.267.237.095.456.23.65.397.193.164.35.367.462.596.127.28.187.586.176.894ZM11.684 68.344a6.917 6.917 0 0 0-.074-.953 4.827 4.827 0 0 0-.262-1.033c-.123-.3-.305-.571-.537-.795a1.144 1.144 0 0 0-.849-.338 1.218 1.218 0 0 0-.614.151 1.595 1.595 0 0 0-.458.397c-.13.177-.237.37-.317.577-.086.219-.154.445-.203.675a6.284 6.284 0 0 0-.102.7 6.857 6.857 0 0 0 .063 1.764c.051.347.154.685.305 1.001.125.275.308.52.536.715a1.278 1.278 0 0 0 1.565 0c.227-.197.41-.44.536-.715.15-.317.255-.654.31-1.001a6.45 6.45 0 0 0 .097-1.137l.004-.008Zm1.252 0c.003.488-.062.973-.192 1.443a3.6 3.6 0 0 1-.563 1.16 2.72 2.72 0 0 1-.927.795 2.85 2.85 0 0 1-1.292.282 2.847 2.847 0 0 1-1.334-.294 2.713 2.713 0 0 1-.923-.795 3.457 3.457 0 0 1-.544-1.164 5.68 5.68 0 0 1-.172-1.41 5.402 5.402 0 0 1 .187-1.467c.115-.42.306-.813.564-1.16.249-.325.567-.587.931-.767a2.892 2.892 0 0 1 1.291-.278c.473-.014.943.091 1.366.306.366.195.681.475.92.818.243.355.42.752.52 1.172.112.444.169.9.168 1.36ZM19.478 65.563v4.335a.841.841 0 0 0 .043.195c.02.054.05.105.086.15a.903.903 0 0 0 .153.144 1.84 1.84 0 0 1-.305.705c-.15.21-.342.386-.564.514a3.377 3.377 0 0 1-1.745.398 4.238 4.238 0 0 1-.869-.084 2.74 2.74 0 0 1-.782-.286 1.932 1.932 0 0 1-.943-1.26.744.744 0 0 0 .238-.293.844.844 0 0 0 .04-.195 2.515 2.515 0 0 0 0-.266v-4.057l-.783-.735h2.676l-.782.735v4.069c-.002.239.023.477.074.71.04.212.125.412.247.589.12.17.28.306.465.397.227.106.475.157.724.147.253.01.504-.044.732-.155.186-.1.345-.245.465-.42.12-.18.204-.381.247-.593a3.22 3.22 0 0 0 .07-.675v-4.07l-.782-.734h2.074l-.78.735ZM24.286 71.32c.366-.003.717-.145.986-.397.33-.337.547-.77.622-1.24h.051c.084.412.215.812.392 1.192.08.165.169.326.266.481.099.161.209.315.328.461h-5.599l.783-.711v-5.543l-.783-.735h2.672l-.782.735v5.77l1.064-.013ZM35.844 68.344a6.411 6.411 0 0 0-.078-.953 4.61 4.61 0 0 0-.266-1.03c-.121-.3-.3-.571-.528-.798a1.173 1.173 0 0 0-.853-.338 1.236 1.236 0 0 0-.615.151 1.635 1.635 0 0 0-.454.397c-.132.177-.24.37-.32.577-.085.219-.152.445-.2.675-.047.23-.081.464-.102.7-.02.205-.031.412-.031.62 0 .38.03.76.09 1.136.053.347.156.684.305 1 .127.276.311.52.54.716a1.278 1.278 0 0 0 1.565 0c.227-.197.41-.44.536-.715.149-.317.253-.655.31-1.001a6.45 6.45 0 0 0 .097-1.137h.004Zm1.248 0c.004.488-.059.973-.188 1.443a3.598 3.598 0 0 1-.563 1.16 2.749 2.749 0 0 1-.931.794 3.129 3.129 0 0 1-2.622 0 2.674 2.674 0 0 1-.923-.794 3.386 3.386 0 0 1-.544-1.164 5.505 5.505 0 0 1-.176-1.439 5.4 5.4 0 0 1 .192-1.466c.114-.42.305-.813.563-1.16.248-.326.567-.588.931-.767a2.875 2.875 0 0 1 1.288-.278c.474-.014.944.09 1.37.306.365.195.68.475.919.818.244.355.42.752.52 1.172.11.45.166.912.164 1.375ZM39.33 68.475a1.214 1.214 0 0 0-.55.143 1.5 1.5 0 0 0-.462.342 1.002 1.002 0 0 1 .285-.747c.199-.184.459-.285.728-.282v-2.384l-.783-.735H44.3c-.193.264-.37.54-.528.826-.149.274-.301.569-.454.874-.07-.16-.15-.317-.239-.468a1.505 1.505 0 0 0-.29-.37 1.075 1.075 0 0 0-.39-.242 1.667 1.667 0 0 0-.568-.084h-1.385v2.599h1.42l.681-.902h.032v2.348h-.032l-.68-.918h-1.429v2.65l.783.724h-2.684l.782-.723.012-2.65ZM53.65 65.384l-.607-.568h2.672l-.782.735v5.575l.782.711h-2.672l.783-.711v-4.768l-1.984 5.463h-.368l-1.78-5.356h-.032v4.184c.01.16.04.317.09.469.047.154.124.298.227.421.115.137.26.244.423.314h-2.043c.267-.146.48-.376.607-.656.127-.32.187-.664.176-1.009v-4.625l-.783-.735h2.868l-.81.735 1.51 4.49 1.723-4.669ZM56.89 71.853l.787-.711V65.55l-.786-.735h2.684l-.794.735v5.59l.794.712H56.89ZM62.088 66.254h-.05V70.65c.01.159.04.316.085.469.049.154.126.297.227.42.117.136.261.243.423.315H60.73c.27-.146.484-.378.61-.66.127-.32.187-.664.177-1.01v-4.62l-.783-.735h2.83l-.681.62 2.59 5.022v-3.974a2.494 2.494 0 0 0-.176-1.005 1.417 1.417 0 0 0-.607-.651h2.043a1.176 1.176 0 0 0-.65.735 2.147 2.147 0 0 0-.09.472v5.83h-1.001l-2.904-5.623ZM68.827 68.344a1.227 1.227 0 0 0-.552.143 1.473 1.473 0 0 0-.457.338.99.99 0 0 1 .281-.743c.199-.184.46-.285.728-.282v-2.237l-.782-.735h5.74c-.194.263-.37.54-.528.826-.15.274-.302.568-.454.874a7.408 7.408 0 0 0-.231-.469 1.49 1.49 0 0 0-.286-.37 1.09 1.09 0 0 0-.391-.241 1.728 1.728 0 0 0-.575-.084h-1.381v2.444h1.424l.68-.902h.032v2.348h-.031l-.685-.91h-1.424v2.98h.907c.245.002.49-.012.732-.04.187-.018.368-.076.532-.17.17-.104.318-.239.438-.398.169-.22.318-.453.447-.699.059.184.128.364.207.54.066.16.14.306.215.445.077.145.163.285.258.418.098.135.208.278.329.433h-5.955l.782-.723v-2.786Z" fill="#BB9C13"/></svg>