{
    "asset" : {
        "generator" : "Khronos glTF Blender I/O v1.6.16",
        "version" : "2.0"
    },
    "extensionsUsed" : [
        "KHR_lights_punctual"
    ],
    "extensionsRequired" : [
        "KHR_lights_punctual"
    ],
    "extensions" : {
        "KHR_lights_punctual" : {
            "lights" : [
                {
                    "color" : [
                        1,
                        1,
                        1
                    ],
                    "intensity" : 10000,
                    "type" : "point",
                    "name" : "Light"
                },
                {
                    "color" : [
                        1,
                        1,
                        1
                    ],
                    "intensity" : 10000,
                    "type" : "point",
                    "name" : "Light.001"
                }
            ]
        }
    },
    "scene" : 0,
    "scenes" : [
        {
            "extras" : {
                "glTF2ExportSettings" : {
                    "export_apply" : 1,
                    "export_cameras" : 1,
                    "export_current_frame" : 0,
                    "export_extras" : 1,
                    "export_format" : "GLTF_SEPARATE",
                    "export_lights" : 1,
                    "export_tangents" : 1,
                    "export_texture_dir" : "",
                    "use_selection" : 0
                }
            },
            "name" : "Scene",
            "nodes" : [
                1,
                2,
                3,
                4,
                6,
                8,
                9,
                10,
                11,
                12,
                13,
                14,
                15,
                16,
                17
            ]
        }
    ],
    "nodes" : [
        {
            "extensions" : {
                "KHR_lights_punctual" : {
                    "light" : 0
                }
            },
            "name" : "Light_Orientation",
            "rotation" : [
                -0.7071067690849304,
                0,
                0,
                0.7071067690849304
            ]
        },
        {
            "children" : [
                0
            ],
            "name" : "Light",
            "rotation" : [
                -0.216055229306221,
                0.43079692125320435,
                -0.6781197190284729,
                0.5548763871192932
            ],
            "translation" : [
                2.1754798889160156,
                -5.285723686218262,
                -15.596890449523926
            ]
        },
        {
            "mesh" : 0,
            "name" : "Plane",
            "rotation" : [
                0.12397191673517227,
                -0.36641746759414673,
                0.6126911044120789,
                0.6891871690750122
            ],
            "scale" : [
                4.709798812866211,
                0.7336790561676025,
                -1.2299755811691284
            ],
            "translation" : [
                4.405106544494629,
                -13.169363021850586,
                3.021083354949951
            ]
        },
        {
            "name" : "Area",
            "rotation" : [
                0.11469689756631851,
                0.02612989768385887,
                -0.16777178645133972,
                0.9787821173667908
            ],
            "scale" : [
                -7.513340473175049,
                -7.513339996337891,
                -7.513340473175049
            ],
            "translation" : [
                -0.532161295413971,
                -31.90574073791504,
                -0.40616416931152344
            ]
        },
        {
            "name" : "Area.001",
            "rotation" : [
                -0.794924795627594,
                -0.5976295471191406,
                -0.08136533200740814,
                -0.06567499041557312
            ],
            "scale" : [
                -7.513340473175049,
                -7.513340473175049,
                -7.513340473175049
            ],
            "translation" : [
                -9.812731742858887,
                -11.163046836853027,
                -2.6316299438476562
            ]
        },
        {
            "extensions" : {
                "KHR_lights_punctual" : {
                    "light" : 1
                }
            },
            "name" : "Light.001_Orientation",
            "rotation" : [
                -0.7071067690849304,
                0,
                0,
                0.7071067690849304
            ]
        },
        {
            "children" : [
                5
            ],
            "name" : "Light.001",
            "rotation" : [
                -0.216055229306221,
                0.43079692125320435,
                -0.6781197190284729,
                0.5548763871192932
            ],
            "scale" : [
                0.6878868937492371,
                0.6878868937492371,
                0.6878869533538818
            ],
            "translation" : [
                7.131768226623535,
                -23.093551635742188,
                0.2207012176513672
            ]
        },
        {
            "camera" : 0,
            "name" : "Camera.001_Orientation",
            "rotation" : [
                -0.7071067690849304,
                0,
                0,
                0.7071067690849304
            ]
        },
        {
            "children" : [
                7
            ],
            "name" : "Camera.001",
            "rotation" : [
                -0.6499098539352417,
                -0.16833356022834778,
                0.01059616357088089,
                0.7410591840744019
            ],
            "translation" : [
                9.62308120727539,
                -14.178476333618164,
                -25.518627166748047
            ]
        },
        {
            "name" : "Wind.002",
            "rotation" : [
                0.4264531433582306,
                -0.6764371395111084,
                0.23045243322849274,
                0.554492712020874
            ],
            "scale" : [
                0.32922178506851196,
                0.3292219042778015,
                0.3292219042778015
            ],
            "translation" : [
                11.02074909210205,
                -21.524755477905273,
                -0.7325145602226257
            ]
        },
        {
            "mesh" : 1,
            "name" : "Plane.002",
            "rotation" : [
                0.5935544967651367,
                -0.16072121262550354,
                -0.1785864531993866,
                -0.7680941820144653
            ],
            "scale" : [
                4.709798812866211,
                0.7336790561676025,
                -1.2299755811691284
            ],
            "translation" : [
                6.6580586433410645,
                -17.65982437133789,
                -1.6888056993484497
            ]
        },
        {
            "mesh" : 2,
            "name" : "Plane.003",
            "rotation" : [
                0.8314682841300964,
                -0.19594329595565796,
                0.13903477787971497,
                0.5009351372718811
            ],
            "scale" : [
                4.709798812866211,
                0.7336790561676025,
                -1.2299755811691284
            ],
            "translation" : [
                6.603486061096191,
                -17.540719985961914,
                1.9922066926956177
            ]
        },
        {
            "name" : "Wind.004",
            "rotation" : [
                0.423533171415329,
                0.6857309937477112,
                0.46608901023864746,
                -0.3649022877216339
            ],
            "scale" : [
                0.32922178506851196,
                0.3292219042778015,
                0.3292219042778015
            ],
            "translation" : [
                -4.914827823638916,
                -19.732479095458984,
                -0.6159622669219971
            ]
        },
        {
            "name" : "Wind.001",
            "rotation" : [
                0.423533171415329,
                0.6857309937477112,
                0.46608901023864746,
                -0.3649022877216339
            ],
            "scale" : [
                0.32922178506851196,
                0.3292219042778015,
                0.3292219042778015
            ],
            "translation" : [
                -4.914827823638916,
                -19.732479095458984,
                -0.6159622669219971
            ]
        },
        {
            "name" : "Wind.005",
            "rotation" : [
                -0.0056883953511714935,
                0.797371506690979,
                0.5860402584075928,
                -0.1439559906721115
            ],
            "scale" : [
                0.32922178506851196,
                0.3292219042778015,
                0.3292219042778015
            ],
            "translation" : [
                4.398442268371582,
                -18.958948135375977,
                -10.899002075195312
            ]
        },
        {
            "name" : "Wind.003",
            "rotation" : [
                -0.34612447023391724,
                0.5863211750984192,
                0.6852291226387024,
                0.2586239278316498
            ],
            "scale" : [
                0.32922178506851196,
                0.3292219042778015,
                0.3292219042778015
            ],
            "translation" : [
                11.931299209594727,
                -16.793685913085938,
                -6.644063949584961
            ]
        },
        {
            "name" : "Wind.006",
            "rotation" : [
                0.5748447775840759,
                -0.4440324306488037,
                -0.07627319544553757,
                -0.6830601096153259
            ],
            "scale" : [
                0.32922178506851196,
                0.3292219042778015,
                0.3292219042778015
            ],
            "translation" : [
                9.62006664276123,
                -20.21907615661621,
                4.434558868408203
            ]
        },
        {
            "name" : "Wind.007",
            "rotation" : [
                0.20286336541175842,
                0.6384196281433105,
                -0.720751166343689,
                0.1782824546098709
            ],
            "scale" : [
                0.32922178506851196,
                0.3292219042778015,
                0.3292219042778015
            ],
            "translation" : [
                -0.6904361248016357,
                -17.12044334411621,
                9.942907333374023
            ]
        }
    ],
    "cameras" : [
        {
            "name" : "Camera.001",
            "perspective" : {
                "aspectRatio" : 1.7777777777777777,
                "yfov" : 0.3995963749392708,
                "zfar" : 100,
                "znear" : 0.10000000149011612
            },
            "type" : "perspective"
        }
    ],
    "materials" : [
        {
            "doubleSided" : true,
            "name" : "Material.002",
            "pbrMetallicRoughness" : {}
        },
        {
            "doubleSided" : true,
            "name" : "Material.001",
            "pbrMetallicRoughness" : {}
        },
        {
            "doubleSided" : true,
            "name" : "Material.003",
            "pbrMetallicRoughness" : {}
        }
    ],
    "meshes" : [
        {
            "name" : "Plane",
            "primitives" : [
                {
                    "attributes" : {
                        "POSITION" : 0,
                        "NORMAL" : 1,
                        "TANGENT" : 2,
                        "TEXCOORD_0" : 3
                    },
                    "indices" : 4,
                    "material" : 0
                }
            ]
        },
        {
            "name" : "Plane.001",
            "primitives" : [
                {
                    "attributes" : {
                        "POSITION" : 5,
                        "NORMAL" : 6,
                        "TANGENT" : 7,
                        "TEXCOORD_0" : 8
                    },
                    "indices" : 4,
                    "material" : 1
                }
            ]
        },
        {
            "name" : "Plane.003",
            "primitives" : [
                {
                    "attributes" : {
                        "POSITION" : 9,
                        "NORMAL" : 10,
                        "TANGENT" : 11,
                        "TEXCOORD_0" : 12
                    },
                    "indices" : 4,
                    "material" : 2
                }
            ]
        }
    ],
    "accessors" : [
        {
            "bufferView" : 0,
            "componentType" : 5126,
            "count" : 16071,
            "max" : [
                1.0385017395019531,
                0.06960877031087875,
                0.7631728649139404
            ],
            "min" : [
                -1.0013667345046997,
                -0.003980120178312063,
                -1.0000001192092896
            ],
            "type" : "VEC3"
        },
        {
            "bufferView" : 1,
            "componentType" : 5126,
            "count" : 16071,
            "type" : "VEC3"
        },
        {
            "bufferView" : 2,
            "componentType" : 5126,
            "count" : 16071,
            "type" : "VEC4"
        },
        {
            "bufferView" : 3,
            "componentType" : 5126,
            "count" : 16071,
            "type" : "VEC2"
        },
        {
            "bufferView" : 4,
            "componentType" : 5123,
            "count" : 92256,
            "type" : "SCALAR"
        },
        {
            "bufferView" : 5,
            "componentType" : 5126,
            "count" : 16071,
            "max" : [
                1.0385017395019531,
                0.06960877031087875,
                0.7631728649139404
            ],
            "min" : [
                -1.0013667345046997,
                -0.003980120178312063,
                -1.0000001192092896
            ],
            "type" : "VEC3"
        },
        {
            "bufferView" : 6,
            "componentType" : 5126,
            "count" : 16071,
            "type" : "VEC3"
        },
        {
            "bufferView" : 7,
            "componentType" : 5126,
            "count" : 16071,
            "type" : "VEC4"
        },
        {
            "bufferView" : 8,
            "componentType" : 5126,
            "count" : 16071,
            "type" : "VEC2"
        },
        {
            "bufferView" : 9,
            "componentType" : 5126,
            "count" : 16071,
            "max" : [
                1.0385017395019531,
                0.06960877031087875,
                0.7631728649139404
            ],
            "min" : [
                -1.0013667345046997,
                -0.003980120178312063,
                -1.0000001192092896
            ],
            "type" : "VEC3"
        },
        {
            "bufferView" : 10,
            "componentType" : 5126,
            "count" : 16071,
            "type" : "VEC3"
        },
        {
            "bufferView" : 11,
            "componentType" : 5126,
            "count" : 16071,
            "type" : "VEC4"
        },
        {
            "bufferView" : 12,
            "componentType" : 5126,
            "count" : 16071,
            "type" : "VEC2"
        }
    ],
    "bufferViews" : [
        {
            "buffer" : 0,
            "byteLength" : 192852,
            "byteOffset" : 0
        },
        {
            "buffer" : 0,
            "byteLength" : 192852,
            "byteOffset" : 192852
        },
        {
            "buffer" : 0,
            "byteLength" : 257136,
            "byteOffset" : 385704
        },
        {
            "buffer" : 0,
            "byteLength" : 128568,
            "byteOffset" : 642840
        },
        {
            "buffer" : 0,
            "byteLength" : 184512,
            "byteOffset" : 771408
        },
        {
            "buffer" : 0,
            "byteLength" : 192852,
            "byteOffset" : 955920
        },
        {
            "buffer" : 0,
            "byteLength" : 192852,
            "byteOffset" : 1148772
        },
        {
            "buffer" : 0,
            "byteLength" : 257136,
            "byteOffset" : 1341624
        },
        {
            "buffer" : 0,
            "byteLength" : 128568,
            "byteOffset" : 1598760
        },
        {
            "buffer" : 0,
            "byteLength" : 192852,
            "byteOffset" : 1727328
        },
        {
            "buffer" : 0,
            "byteLength" : 192852,
            "byteOffset" : 1920180
        },
        {
            "buffer" : 0,
            "byteLength" : 257136,
            "byteOffset" : 2113032
        },
        {
            "buffer" : 0,
            "byteLength" : 128568,
            "byteOffset" : 2370168
        }
    ],
    "buffers" : [
        {
            "byteLength" : 2498736,
            "uri" : "clothblendbotl.bin"
        }
    ]
}